<svg width="233" height="25" viewBox="0 0 233 25" fill="none" xmlns="http://www.w3.org/2000/svg">
<path d="M23.2969 25H19.2344V19.5H4.95312V25H0.890625V13.7969C0.890625 12.1615 1.17188 10.6562 1.73438 9.28125C2.29688 7.90625 3.07812 6.72396 4.07812 5.73438C5.07812 4.74479 6.26042 3.97396 7.625 3.42188C8.98958 2.86979 10.4792 2.59375 12.0938 2.59375H21.25C21.5312 2.59375 21.7969 2.64583 22.0469 2.75C22.2969 2.85417 22.5156 3 22.7031 3.1875C22.8906 3.375 23.0365 3.59375 23.1406 3.84375C23.2448 4.09375 23.2969 4.35938 23.2969 4.64062V25ZM4.95312 15.4375H19.2344V6.65625H12.0938C11.9688 6.65625 11.7031 6.67708 11.2969 6.71875C10.901 6.75 10.4375 6.83854 9.90625 6.98438C9.38542 7.13021 8.83333 7.35417 8.25 7.65625C7.66667 7.95833 7.13021 8.375 6.64062 8.90625C6.15104 9.4375 5.74479 10.1042 5.42188 10.9062C5.10938 11.6979 4.95312 12.6615 4.95312 13.7969V15.4375ZM33.725 25H29.6625V2.59375H33.725V25ZM55.95 19.2969C55.95 19.9948 55.8615 20.625 55.6844 21.1875C55.5073 21.7396 55.2729 22.2292 54.9813 22.6562C54.6896 23.0729 54.351 23.4323 53.9656 23.7344C53.5802 24.026 53.174 24.2656 52.7469 24.4531C52.3302 24.6406 51.9031 24.7812 51.4656 24.875C51.0385 24.9583 50.6323 25 50.2469 25H39.2469V20.9375H50.2156C50.7677 20.9375 51.1844 20.7969 51.4656 20.5156C51.7469 20.2344 51.8875 19.8281 51.8875 19.2969C51.8354 18.2135 51.2885 17.6719 50.2469 17.6719H43.95C43.0542 17.6719 42.2938 17.5156 41.6688 17.2031C41.0438 16.8906 40.5333 16.5 40.1375 16.0312C39.7521 15.5625 39.4708 15.0573 39.2938 14.5156C39.1271 13.974 39.0438 13.4688 39.0438 13C39.0438 12.0938 39.2052 11.3333 39.5281 10.7188C39.851 10.0938 40.2573 9.58854 40.7469 9.20312C41.2365 8.81771 41.7677 8.54167 42.3406 8.375C42.9135 8.19792 43.45 8.10938 43.95 8.10938H53.9344V12.1719H43.9813C43.7729 12.1719 43.6063 12.1979 43.4813 12.25C43.3667 12.2917 43.2781 12.3542 43.2156 12.4375C43.1635 12.5104 43.1323 12.5938 43.1219 12.6875C43.1115 12.7708 43.1063 12.8542 43.1063 12.9375C43.1167 13.1042 43.1479 13.2344 43.2 13.3281C43.2521 13.4219 43.3146 13.4896 43.3875 13.5312C43.4708 13.5729 43.5594 13.599 43.6531 13.6094C43.7573 13.6094 43.8563 13.6094 43.95 13.6094H50.2469C51.2885 13.6094 52.174 13.7969 52.9031 14.1719C53.6323 14.5469 54.2208 15.0208 54.6688 15.5938C55.1167 16.1562 55.4396 16.7708 55.6375 17.4375C55.8458 18.1042 55.95 18.724 55.95 19.2969ZM77.8469 19.4062C77.8469 19.9688 77.7479 20.5781 77.55 21.2344C77.3521 21.8802 77.0292 22.4844 76.5812 23.0469C76.1437 23.599 75.5656 24.0625 74.8469 24.4375C74.1385 24.8125 73.274 25 72.2531 25H64.925C64.3625 25 63.7531 24.901 63.0969 24.7031C62.451 24.5052 61.8469 24.1875 61.2844 23.75C60.7323 23.3021 60.2687 22.724 59.8937 22.0156C59.5187 21.2969 59.3312 20.4271 59.3312 19.4062C59.3312 18.8438 59.4302 18.2344 59.6281 17.5781C59.826 16.9219 60.1437 16.3177 60.5812 15.7656C61.0292 15.2031 61.6073 14.7344 62.3156 14.3594C63.0344 13.9844 63.9042 13.7969 64.925 13.7969H72.2531V17.6719H64.925C64.3729 17.6719 63.9458 17.8438 63.6437 18.1875C63.3417 18.5208 63.1906 18.9375 63.1906 19.4375C63.1906 19.9688 63.3625 20.3854 63.7062 20.6875C64.0604 20.9792 64.4771 21.125 64.9562 21.125H72.2531C72.8052 21.125 73.2323 20.9583 73.5344 20.625C73.8365 20.2917 73.9875 19.875 73.9875 19.375V13.7031C73.9875 13.1719 73.8208 12.75 73.4875 12.4375C73.1646 12.125 72.7531 11.9688 72.2531 11.9688H63.3312V8.10938H72.2531C72.8156 8.10938 73.4198 8.20833 74.0656 8.40625C74.7219 8.60417 75.326 8.92708 75.8781 9.375C76.4406 9.8125 76.9094 10.3906 77.2844 11.1094C77.6594 11.8177 77.8469 12.6823 77.8469 13.7031V19.4062ZM102.759 25H96.9L88.7125 17.0938C88.2542 16.6771 88.0406 16.1562 88.0719 15.5312C88.0927 15.2396 88.1656 14.9688 88.2906 14.7188C88.426 14.4583 88.6083 14.2396 88.8375 14.0625L96.2594 8.07812H102.759L93.1969 15.7812L102.759 25ZM87.0406 25H82.9781V0.96875H87.0406V25ZM129.484 10.125C129.484 11.0521 129.37 11.8802 129.141 12.6094C128.911 13.3385 128.599 13.9844 128.203 14.5469C127.818 15.099 127.37 15.5729 126.859 15.9688C126.349 16.3646 125.812 16.6927 125.25 16.9531C124.698 17.2031 124.135 17.3854 123.562 17.5C123 17.6146 122.469 17.6719 121.969 17.6719L130.453 25H124.172L115.703 17.6719H112.781V13.6094H121.969C122.479 13.5677 122.943 13.4635 123.359 13.2969C123.786 13.1198 124.151 12.8854 124.453 12.5938C124.766 12.3021 125.005 11.9531 125.172 11.5469C125.339 11.1302 125.422 10.6562 125.422 10.125V7.5625C125.422 7.33333 125.391 7.16146 125.328 7.04688C125.276 6.92188 125.203 6.83333 125.109 6.78125C125.026 6.71875 124.932 6.68229 124.828 6.67188C124.734 6.66146 124.646 6.65625 124.562 6.65625H111.156V25H107.094V4.64062C107.094 4.35938 107.146 4.09375 107.25 3.84375C107.354 3.59375 107.495 3.375 107.672 3.1875C107.859 3 108.078 2.85417 108.328 2.75C108.578 2.64583 108.849 2.59375 109.141 2.59375H124.562C125.469 2.59375 126.234 2.76042 126.859 3.09375C127.484 3.41667 127.99 3.82812 128.375 4.32812C128.771 4.81771 129.052 5.34896 129.219 5.92188C129.396 6.49479 129.484 7.03125 129.484 7.53125V10.125ZM151.928 19.4062C151.928 19.9688 151.829 20.5781 151.631 21.2344C151.433 21.8802 151.11 22.4844 150.663 23.0469C150.225 23.599 149.647 24.0625 148.928 24.4375C148.22 24.8125 147.355 25 146.334 25H139.006C138.444 25 137.834 24.901 137.178 24.7031C136.532 24.5052 135.928 24.1875 135.366 23.75C134.814 23.3021 134.35 22.724 133.975 22.0156C133.6 21.2969 133.413 20.4271 133.413 19.4062C133.413 18.8438 133.511 18.2344 133.709 17.5781C133.907 16.9219 134.225 16.3177 134.663 15.7656C135.11 15.2031 135.689 14.7344 136.397 14.3594C137.116 13.9844 137.985 13.7969 139.006 13.7969H146.334V17.6719H139.006C138.454 17.6719 138.027 17.8438 137.725 18.1875C137.423 18.5208 137.272 18.9375 137.272 19.4375C137.272 19.9688 137.444 20.3854 137.788 20.6875C138.142 20.9792 138.558 21.125 139.038 21.125H146.334C146.886 21.125 147.314 20.9583 147.616 20.625C147.918 20.2917 148.069 19.875 148.069 19.375V13.7031C148.069 13.1719 147.902 12.75 147.569 12.4375C147.246 12.125 146.834 11.9688 146.334 11.9688H137.413V8.10938H146.334C146.897 8.10938 147.501 8.20833 148.147 8.40625C148.803 8.60417 149.407 8.92708 149.959 9.375C150.522 9.8125 150.991 10.3906 151.366 11.1094C151.741 11.8177 151.928 12.6823 151.928 13.7031V19.4062ZM173.356 25H162.341C161.778 25 161.164 24.901 160.497 24.7031C159.83 24.5052 159.21 24.1823 158.637 23.7344C158.075 23.276 157.601 22.6875 157.216 21.9688C156.841 21.2396 156.653 20.349 156.653 19.2969V13.7969C156.653 13.4115 156.695 13.0052 156.778 12.5781C156.872 12.151 157.012 11.7292 157.2 11.3125C157.387 10.8854 157.627 10.4792 157.919 10.0938C158.221 9.70833 158.58 9.36979 158.997 9.07812C159.424 8.78646 159.914 8.55208 160.466 8.375C161.018 8.19792 161.643 8.10938 162.341 8.10938H173.356V12.1719H162.341C161.809 12.1719 161.403 12.3073 161.122 12.5781C160.851 12.849 160.716 13.2656 160.716 13.8281V19.2969C160.716 19.8281 160.856 20.2344 161.137 20.5156C161.419 20.7969 161.83 20.9375 162.372 20.9375H173.356V25ZM197.097 25H193.034V13.7969C193.034 13.2656 192.899 12.8646 192.628 12.5938C192.357 12.3125 191.951 12.1719 191.409 12.1719H184.081V8.10938H191.409C191.795 8.10938 192.201 8.15625 192.628 8.25C193.055 8.33333 193.477 8.46875 193.894 8.65625C194.321 8.84375 194.727 9.08854 195.113 9.39062C195.498 9.68229 195.836 10.0417 196.128 10.4688C196.42 10.8854 196.654 11.3698 196.831 11.9219C197.008 12.474 197.097 13.099 197.097 13.7969V25ZM182.441 25H178.378V0.96875H182.441V25ZM220.587 13.7031C220.587 14.2656 220.489 14.875 220.291 15.5312C220.093 16.1771 219.77 16.7812 219.322 17.3438C218.884 17.8958 218.306 18.3594 217.587 18.7344C216.879 19.1094 216.015 19.2969 214.994 19.2969H207.666V15.4375H214.994C215.546 15.4375 215.973 15.2708 216.275 14.9375C216.577 14.5938 216.728 14.1719 216.728 13.6719C216.728 13.1406 216.556 12.724 216.212 12.4219C215.879 12.1198 215.473 11.9688 214.994 11.9688H207.666C207.114 11.9688 206.686 12.1406 206.384 12.4844C206.082 12.8177 205.931 13.2344 205.931 13.7344V19.4062C205.931 19.9479 206.098 20.3698 206.431 20.6719C206.775 20.974 207.197 21.125 207.697 21.125H214.994V25H207.666C207.103 25 206.494 24.901 205.837 24.7031C205.192 24.5052 204.587 24.1875 204.025 23.75C203.473 23.3021 203.009 22.724 202.634 22.0156C202.259 21.2969 202.072 20.4271 202.072 19.4062V13.7031C202.072 13.1406 202.171 12.5365 202.369 11.8906C202.567 11.2344 202.884 10.6302 203.322 10.0781C203.77 9.51562 204.348 9.04688 205.056 8.67188C205.775 8.29688 206.645 8.10938 207.666 8.10938H214.994C215.556 8.10938 216.16 8.20833 216.806 8.40625C217.462 8.60417 218.067 8.92708 218.619 9.375C219.181 9.8125 219.65 10.3906 220.025 11.1094C220.4 11.8177 220.587 12.6823 220.587 13.7031ZM232.344 25H230.531C229.948 25 229.323 24.901 228.656 24.7031C228 24.5052 227.385 24.1823 226.812 23.7344C226.24 23.276 225.766 22.6875 225.391 21.9688C225.016 21.2396 224.828 20.349 224.828 19.2969V0.96875H228.891V19.2969C228.891 19.7969 229.047 20.1979 229.359 20.5C229.672 20.7917 230.062 20.9375 230.531 20.9375H232.344V25Z" fill="url(#paint0_linear_45_23)"/>
<defs>
<linearGradient id="paint0_linear_45_23" x1="116" y1="-9" x2="116" y2="37" gradientUnits="userSpaceOnUse">
<stop offset="0.03" stop-color="#00D4FE"/>
<stop offset="1" stop-color="#004AE9"/>
</linearGradient>
</defs>
</svg>
