<svg width="192" height="26" viewBox="0 0 192 26" fill="none" xmlns="http://www.w3.org/2000/svg">
<path d="M23.3469 25H19.2844V19.5H5.00313V25H0.940628V13.7969C0.940628 12.1615 1.22188 10.6562 1.78438 9.28125C2.34688 7.90625 3.12813 6.72396 4.12813 5.73438C5.12813 4.74479 6.31042 3.97396 7.675 3.42188C9.03959 2.86979 10.5292 2.59375 12.1438 2.59375H21.3C21.5813 2.59375 21.8469 2.64583 22.0969 2.75C22.3469 2.85417 22.5656 3 22.7531 3.1875C22.9406 3.375 23.0865 3.59375 23.1906 3.84375C23.2948 4.09375 23.3469 4.35938 23.3469 4.64062V25ZM5.00313 15.4375H19.2844V6.65625H12.1438C12.0188 6.65625 11.7531 6.67708 11.3469 6.71875C10.951 6.75 10.4875 6.83854 9.95625 6.98438C9.43542 7.13021 8.88334 7.35417 8.3 7.65625C7.71667 7.95833 7.18021 8.375 6.69063 8.90625C6.20104 9.4375 5.79479 10.1042 5.47188 10.9062C5.15938 11.6979 5.00313 12.6615 5.00313 13.7969V15.4375ZM33.775 25H29.7125V2.59375H33.775V25ZM56 19.2969C56 19.9948 55.9115 20.625 55.7344 21.1875C55.5573 21.7396 55.3229 22.2292 55.0313 22.6562C54.7396 23.0729 54.401 23.4323 54.0156 23.7344C53.6302 24.026 53.224 24.2656 52.7969 24.4531C52.3802 24.6406 51.9531 24.7812 51.5156 24.875C51.0885 24.9583 50.6823 25 50.2969 25H39.2969V20.9375H50.2656C50.8177 20.9375 51.2344 20.7969 51.5156 20.5156C51.7969 20.2344 51.9375 19.8281 51.9375 19.2969C51.8854 18.2135 51.3385 17.6719 50.2969 17.6719H44C43.1042 17.6719 42.3438 17.5156 41.7188 17.2031C41.0938 16.8906 40.5833 16.5 40.1875 16.0312C39.8021 15.5625 39.5208 15.0573 39.3438 14.5156C39.1771 13.974 39.0938 13.4688 39.0938 13C39.0938 12.0938 39.2552 11.3333 39.5781 10.7188C39.901 10.0938 40.3073 9.58854 40.7969 9.20312C41.2865 8.81771 41.8177 8.54167 42.3906 8.375C42.9635 8.19792 43.5 8.10938 44 8.10938H53.9844V12.1719H44.0313C43.8229 12.1719 43.6563 12.1979 43.5313 12.25C43.4167 12.2917 43.3281 12.3542 43.2656 12.4375C43.2135 12.5104 43.1823 12.5938 43.1719 12.6875C43.1615 12.7708 43.1563 12.8542 43.1563 12.9375C43.1667 13.1042 43.1979 13.2344 43.25 13.3281C43.3021 13.4219 43.3646 13.4896 43.4375 13.5312C43.5208 13.5729 43.6094 13.599 43.7031 13.6094C43.8073 13.6094 43.9063 13.6094 44 13.6094H50.2969C51.3385 13.6094 52.224 13.7969 52.9531 14.1719C53.6823 14.5469 54.2708 15.0208 54.7188 15.5938C55.1667 16.1562 55.4896 16.7708 55.6875 17.4375C55.8958 18.1042 56 18.724 56 19.2969ZM77.8969 19.4062C77.8969 19.9688 77.7979 20.5781 77.6 21.2344C77.4021 21.8802 77.0792 22.4844 76.6313 23.0469C76.1938 23.599 75.6156 24.0625 74.8969 24.4375C74.1885 24.8125 73.324 25 72.3031 25H64.975C64.4125 25 63.8031 24.901 63.1469 24.7031C62.501 24.5052 61.8969 24.1875 61.3344 23.75C60.7823 23.3021 60.3188 22.724 59.9438 22.0156C59.5688 21.2969 59.3813 20.4271 59.3813 19.4062C59.3813 18.8438 59.4802 18.2344 59.6781 17.5781C59.876 16.9219 60.1938 16.3177 60.6313 15.7656C61.0792 15.2031 61.6573 14.7344 62.3656 14.3594C63.0844 13.9844 63.9542 13.7969 64.975 13.7969H72.3031V17.6719H64.975C64.4229 17.6719 63.9958 17.8438 63.6938 18.1875C63.3917 18.5208 63.2406 18.9375 63.2406 19.4375C63.2406 19.9688 63.4125 20.3854 63.7563 20.6875C64.1104 20.9792 64.5271 21.125 65.0063 21.125H72.3031C72.8552 21.125 73.2823 20.9583 73.5844 20.625C73.8865 20.2917 74.0375 19.875 74.0375 19.375V13.7031C74.0375 13.1719 73.8708 12.75 73.5375 12.4375C73.2146 12.125 72.8031 11.9688 72.3031 11.9688H63.3813V8.10938H72.3031C72.8656 8.10938 73.4698 8.20833 74.1156 8.40625C74.7719 8.60417 75.376 8.92708 75.9281 9.375C76.4906 9.8125 76.9594 10.3906 77.3344 11.1094C77.7094 11.8177 77.8969 12.6823 77.8969 13.7031V19.4062ZM102.809 25H96.95L88.7625 17.0938C88.3042 16.6771 88.0906 16.1562 88.1219 15.5312C88.1427 15.2396 88.2156 14.9688 88.3406 14.7188C88.476 14.4583 88.6583 14.2396 88.8875 14.0625L96.3094 8.07812H102.809L93.2469 15.7812L102.809 25ZM87.0906 25H83.0281V0.96875H87.0906V25ZM129.566 2.59375L118.956 24.2031C118.79 24.5365 118.54 24.8021 118.206 25C117.883 25.2083 117.524 25.3125 117.128 25.3125C116.743 25.3125 116.383 25.2083 116.05 25C115.727 24.8021 115.477 24.5365 115.3 24.2031L104.706 2.59375H109.253L117.128 18.7344L125.034 2.59375H129.566ZM150.056 13.7031C150.056 14.2656 149.957 14.875 149.759 15.5312C149.561 16.1771 149.239 16.7812 148.791 17.3438C148.353 17.8958 147.775 18.3594 147.056 18.7344C146.348 19.1094 145.483 19.2969 144.463 19.2969H137.134V15.4375H144.463C145.015 15.4375 145.442 15.2708 145.744 14.9375C146.046 14.5938 146.197 14.1719 146.197 13.6719C146.197 13.1406 146.025 12.724 145.681 12.4219C145.348 12.1198 144.942 11.9688 144.463 11.9688H137.134C136.582 11.9688 136.155 12.1406 135.853 12.4844C135.551 12.8177 135.4 13.2344 135.4 13.7344V19.4062C135.4 19.9479 135.567 20.3698 135.9 20.6719C136.244 20.974 136.666 21.125 137.166 21.125H144.463V25H137.134C136.572 25 135.963 24.901 135.306 24.7031C134.66 24.5052 134.056 24.1875 133.494 23.75C132.942 23.3021 132.478 22.724 132.103 22.0156C131.728 21.2969 131.541 20.4271 131.541 19.4062V13.7031C131.541 13.1406 131.64 12.5365 131.838 11.8906C132.035 11.2344 132.353 10.6302 132.791 10.0781C133.239 9.51562 133.817 9.04688 134.525 8.67188C135.244 8.29688 136.114 8.10938 137.134 8.10938H144.463C145.025 8.10938 145.629 8.20833 146.275 8.40625C146.931 8.60417 147.535 8.92708 148.088 9.375C148.65 9.8125 149.119 10.3906 149.494 11.1094C149.869 11.8177 150.056 12.6823 150.056 13.7031ZM161.812 25H160C159.417 25 158.792 24.901 158.125 24.7031C157.469 24.5052 156.854 24.1823 156.281 23.7344C155.708 23.276 155.234 22.6875 154.859 21.9688C154.484 21.2396 154.297 20.349 154.297 19.2969V0.96875H158.359V19.2969C158.359 19.7969 158.516 20.1979 158.828 20.5C159.141 20.7917 159.531 20.9375 160 20.9375H161.812V25ZM170.147 4.64062H166.084V0.96875H170.147V4.64062ZM170.147 25H166.084V8.10938H170.147V25ZM191.653 9.35938C191.82 9.74479 191.861 10.1354 191.778 10.5312C191.705 10.9271 191.528 11.2708 191.247 11.5625L181.856 20.9375H191.622V25H176.966C176.549 25 176.169 24.8854 175.825 24.6562C175.492 24.4167 175.242 24.1146 175.075 23.75C174.919 23.3646 174.877 22.974 174.95 22.5781C175.033 22.1719 175.226 21.8177 175.528 21.5156L184.872 12.1719H175.106V8.10938H189.794C190.2 8.10938 190.57 8.21875 190.903 8.4375C191.247 8.65625 191.497 8.96354 191.653 9.35938Z" fill="url(#paint0_linear_45_23)"/>
<defs>
<linearGradient id="paint0_linear_45_23" x1="96" y1="-7" x2="96" y2="34" gradientUnits="userSpaceOnUse">
<stop offset="0.03" stop-color="#00D4FE"/>
<stop offset="1" stop-color="#004AE9"/>
</linearGradient>
</defs>
</svg>
