<svg width="306" height="46" viewBox="0 0 306 46" fill="none" xmlns="http://www.w3.org/2000/svg">
<rect width="65" height="46" fill="url(#paint0_linear_45_14)"/>
<path fill-rule="evenodd" clip-rule="evenodd" d="M5 40.3497L20.6033 6L34.5813 33.6601H13.2923L10.3962 40.3497H5ZM20.6033 16.2974L15.3372 28.855H27.1047L20.6033 16.2974Z" fill="white"/>
<path d="M31.1356 17.7271L37.962 6.07516H43.6182L36.9868 17.7271L42.0085 29.0752L53.3053 6.07516H59L42.0085 40.5L31.1356 17.7271Z" fill="white"/>
<rect x="64" width="201" height="46" fill="white"/>
<path d="M92.2969 34H88.2344V28.5H73.9531V34H69.8906V22.7969C69.8906 21.1615 70.1719 19.6562 70.7344 18.2812C71.2969 16.9062 72.0781 15.724 73.0781 14.7344C74.0781 13.7448 75.2604 12.974 76.625 12.4219C77.9896 11.8698 79.4792 11.5938 81.0938 11.5938H90.25C90.5312 11.5938 90.7969 11.6458 91.0469 11.75C91.2969 11.8542 91.5156 12 91.7031 12.1875C91.8906 12.375 92.0365 12.5938 92.1406 12.8438C92.2448 13.0938 92.2969 13.3594 92.2969 13.6406V34ZM73.9531 24.4375H88.2344V15.6562H81.0938C80.9688 15.6562 80.7031 15.6771 80.2969 15.7188C79.901 15.75 79.4375 15.8385 78.9062 15.9844C78.3854 16.1302 77.8333 16.3542 77.25 16.6562C76.6667 16.9583 76.1302 17.375 75.6406 17.9062C75.151 18.4375 74.7448 19.1042 74.4219 19.9062C74.1094 20.6979 73.9531 21.6615 73.9531 22.7969V24.4375ZM102.725 34H98.6625V11.5938H102.725V34ZM124.95 28.2969C124.95 28.9948 124.861 29.625 124.684 30.1875C124.507 30.7396 124.273 31.2292 123.981 31.6562C123.69 32.0729 123.351 32.4323 122.966 32.7344C122.58 33.026 122.174 33.2656 121.747 33.4531C121.33 33.6406 120.903 33.7812 120.466 33.875C120.039 33.9583 119.632 34 119.247 34H108.247V29.9375H119.216C119.768 29.9375 120.184 29.7969 120.466 29.5156C120.747 29.2344 120.888 28.8281 120.888 28.2969C120.835 27.2135 120.289 26.6719 119.247 26.6719H112.95C112.054 26.6719 111.294 26.5156 110.669 26.2031C110.044 25.8906 109.533 25.5 109.138 25.0312C108.752 24.5625 108.471 24.0573 108.294 23.5156C108.127 22.974 108.044 22.4688 108.044 22C108.044 21.0938 108.205 20.3333 108.528 19.7188C108.851 19.0938 109.257 18.5885 109.747 18.2031C110.236 17.8177 110.768 17.5417 111.341 17.375C111.914 17.1979 112.45 17.1094 112.95 17.1094H122.934V21.1719H112.981C112.773 21.1719 112.606 21.1979 112.481 21.25C112.367 21.2917 112.278 21.3542 112.216 21.4375C112.164 21.5104 112.132 21.5938 112.122 21.6875C112.111 21.7708 112.106 21.8542 112.106 21.9375C112.117 22.1042 112.148 22.2344 112.2 22.3281C112.252 22.4219 112.315 22.4896 112.388 22.5312C112.471 22.5729 112.559 22.599 112.653 22.6094C112.757 22.6094 112.856 22.6094 112.95 22.6094H119.247C120.289 22.6094 121.174 22.7969 121.903 23.1719C122.632 23.5469 123.221 24.0208 123.669 24.5938C124.117 25.1562 124.44 25.7708 124.638 26.4375C124.846 27.1042 124.95 27.724 124.95 28.2969ZM146.847 28.4062C146.847 28.9688 146.748 29.5781 146.55 30.2344C146.352 30.8802 146.029 31.4844 145.581 32.0469C145.144 32.599 144.566 33.0625 143.847 33.4375C143.139 33.8125 142.274 34 141.253 34H133.925C133.362 34 132.753 33.901 132.097 33.7031C131.451 33.5052 130.847 33.1875 130.284 32.75C129.732 32.3021 129.269 31.724 128.894 31.0156C128.519 30.2969 128.331 29.4271 128.331 28.4062C128.331 27.8438 128.43 27.2344 128.628 26.5781C128.826 25.9219 129.144 25.3177 129.581 24.7656C130.029 24.2031 130.607 23.7344 131.316 23.3594C132.034 22.9844 132.904 22.7969 133.925 22.7969H141.253V26.6719H133.925C133.373 26.6719 132.946 26.8438 132.644 27.1875C132.342 27.5208 132.191 27.9375 132.191 28.4375C132.191 28.9688 132.362 29.3854 132.706 29.6875C133.06 29.9792 133.477 30.125 133.956 30.125H141.253C141.805 30.125 142.232 29.9583 142.534 29.625C142.836 29.2917 142.987 28.875 142.987 28.375V22.7031C142.987 22.1719 142.821 21.75 142.487 21.4375C142.165 21.125 141.753 20.9688 141.253 20.9688H132.331V17.1094H141.253C141.816 17.1094 142.42 17.2083 143.066 17.4062C143.722 17.6042 144.326 17.9271 144.878 18.375C145.441 18.8125 145.909 19.3906 146.284 20.1094C146.659 20.8177 146.847 21.6823 146.847 22.7031V28.4062ZM171.759 34H165.9L157.713 26.0938C157.254 25.6771 157.041 25.1562 157.072 24.5312C157.093 24.2396 157.166 23.9688 157.291 23.7188C157.426 23.4583 157.608 23.2396 157.838 23.0625L165.259 17.0781H171.759L162.197 24.7812L171.759 34ZM156.041 34H151.978V9.96875H156.041V34ZM198.484 19.125C198.484 20.0521 198.37 20.8802 198.141 21.6094C197.911 22.3385 197.599 22.9844 197.203 23.5469C196.818 24.099 196.37 24.5729 195.859 24.9688C195.349 25.3646 194.812 25.6927 194.25 25.9531C193.698 26.2031 193.135 26.3854 192.562 26.5C192 26.6146 191.469 26.6719 190.969 26.6719L199.453 34H193.172L184.703 26.6719H181.781V22.6094H190.969C191.479 22.5677 191.943 22.4635 192.359 22.2969C192.786 22.1198 193.151 21.8854 193.453 21.5938C193.766 21.3021 194.005 20.9531 194.172 20.5469C194.339 20.1302 194.422 19.6562 194.422 19.125V16.5625C194.422 16.3333 194.391 16.1615 194.328 16.0469C194.276 15.9219 194.203 15.8333 194.109 15.7812C194.026 15.7188 193.932 15.6823 193.828 15.6719C193.734 15.6615 193.646 15.6562 193.562 15.6562H180.156V34H176.094V13.6406C176.094 13.3594 176.146 13.0938 176.25 12.8438C176.354 12.5938 176.495 12.375 176.672 12.1875C176.859 12 177.078 11.8542 177.328 11.75C177.578 11.6458 177.849 11.5938 178.141 11.5938H193.562C194.469 11.5938 195.234 11.7604 195.859 12.0938C196.484 12.4167 196.99 12.8281 197.375 13.3281C197.771 13.8177 198.052 14.349 198.219 14.9219C198.396 15.4948 198.484 16.0312 198.484 16.5312V19.125ZM220.928 28.4062C220.928 28.9688 220.829 29.5781 220.631 30.2344C220.433 30.8802 220.11 31.4844 219.663 32.0469C219.225 32.599 218.647 33.0625 217.928 33.4375C217.22 33.8125 216.355 34 215.334 34H208.006C207.444 34 206.834 33.901 206.178 33.7031C205.532 33.5052 204.928 33.1875 204.366 32.75C203.814 32.3021 203.35 31.724 202.975 31.0156C202.6 30.2969 202.413 29.4271 202.413 28.4062C202.413 27.8438 202.511 27.2344 202.709 26.5781C202.907 25.9219 203.225 25.3177 203.663 24.7656C204.11 24.2031 204.689 23.7344 205.397 23.3594C206.116 22.9844 206.985 22.7969 208.006 22.7969H215.334V26.6719H208.006C207.454 26.6719 207.027 26.8438 206.725 27.1875C206.423 27.5208 206.272 27.9375 206.272 28.4375C206.272 28.9688 206.444 29.3854 206.788 29.6875C207.142 29.9792 207.558 30.125 208.038 30.125H215.334C215.886 30.125 216.314 29.9583 216.616 29.625C216.918 29.2917 217.069 28.875 217.069 28.375V22.7031C217.069 22.1719 216.902 21.75 216.569 21.4375C216.246 21.125 215.834 20.9688 215.334 20.9688H206.413V17.1094H215.334C215.897 17.1094 216.501 17.2083 217.147 17.4062C217.803 17.6042 218.407 17.9271 218.959 18.375C219.522 18.8125 219.991 19.3906 220.366 20.1094C220.741 20.8177 220.928 21.6823 220.928 22.7031V28.4062ZM242.356 34H231.341C230.778 34 230.164 33.901 229.497 33.7031C228.83 33.5052 228.21 33.1823 227.637 32.7344C227.075 32.276 226.601 31.6875 226.216 30.9688C225.841 30.2396 225.653 29.349 225.653 28.2969V22.7969C225.653 22.4115 225.695 22.0052 225.778 21.5781C225.872 21.151 226.012 20.7292 226.2 20.3125C226.387 19.8854 226.627 19.4792 226.919 19.0938C227.221 18.7083 227.58 18.3698 227.997 18.0781C228.424 17.7865 228.914 17.5521 229.466 17.375C230.018 17.1979 230.643 17.1094 231.341 17.1094H242.356V21.1719H231.341C230.809 21.1719 230.403 21.3073 230.122 21.5781C229.851 21.849 229.716 22.2656 229.716 22.8281V28.2969C229.716 28.8281 229.856 29.2344 230.137 29.5156C230.419 29.7969 230.83 29.9375 231.372 29.9375H242.356V34ZM266.097 34H262.034V22.7969C262.034 22.2656 261.899 21.8646 261.628 21.5938C261.357 21.3125 260.951 21.1719 260.409 21.1719H253.081V17.1094H260.409C260.795 17.1094 261.201 17.1562 261.628 17.25C262.055 17.3333 262.477 17.4688 262.894 17.6562C263.321 17.8438 263.727 18.0885 264.113 18.3906C264.498 18.6823 264.836 19.0417 265.128 19.4688C265.42 19.8854 265.654 20.3698 265.831 20.9219C266.008 21.474 266.097 22.099 266.097 22.7969V34ZM251.441 34H247.378V9.96875H251.441V34ZM289.587 22.7031C289.587 23.2656 289.489 23.875 289.291 24.5312C289.093 25.1771 288.77 25.7812 288.322 26.3438C287.884 26.8958 287.306 27.3594 286.587 27.7344C285.879 28.1094 285.015 28.2969 283.994 28.2969H276.666V24.4375H283.994C284.546 24.4375 284.973 24.2708 285.275 23.9375C285.577 23.5938 285.728 23.1719 285.728 22.6719C285.728 22.1406 285.556 21.724 285.212 21.4219C284.879 21.1198 284.473 20.9688 283.994 20.9688H276.666C276.114 20.9688 275.686 21.1406 275.384 21.4844C275.082 21.8177 274.931 22.2344 274.931 22.7344V28.4062C274.931 28.9479 275.098 29.3698 275.431 29.6719C275.775 29.974 276.197 30.125 276.697 30.125H283.994V34H276.666C276.103 34 275.494 33.901 274.837 33.7031C274.192 33.5052 273.587 33.1875 273.025 32.75C272.473 32.3021 272.009 31.724 271.634 31.0156C271.259 30.2969 271.072 29.4271 271.072 28.4062V22.7031C271.072 22.1406 271.171 21.5365 271.369 20.8906C271.567 20.2344 271.884 19.6302 272.322 19.0781C272.77 18.5156 273.348 18.0469 274.056 17.6719C274.775 17.2969 275.645 17.1094 276.666 17.1094H283.994C284.556 17.1094 285.16 17.2083 285.806 17.4062C286.462 17.6042 287.067 17.9271 287.619 18.375C288.181 18.8125 288.65 19.3906 289.025 20.1094C289.4 20.8177 289.587 21.6823 289.587 22.7031ZM301.344 34H299.531C298.948 34 298.323 33.901 297.656 33.7031C297 33.5052 296.385 33.1823 295.812 32.7344C295.24 32.276 294.766 31.6875 294.391 30.9688C294.016 30.2396 293.828 29.349 293.828 28.2969V9.96875H297.891V28.2969C297.891 28.7969 298.047 29.1979 298.359 29.5C298.672 29.7917 299.062 29.9375 299.531 29.9375H301.344V34Z" fill="url(#paint1_linear_45_14)"/>
<defs>
<linearGradient id="paint0_linear_45_14" x1="32.5" y1="0" x2="32.5" y2="46" gradientUnits="userSpaceOnUse">
<stop offset="0.03" stop-color="#00D4FE"/>
<stop offset="1" stop-color="#004AE9"/>
</linearGradient>
<linearGradient id="paint1_linear_45_14" x1="185" y1="0" x2="185" y2="46" gradientUnits="userSpaceOnUse">
<stop offset="0.03" stop-color="#00D4FE"/>
<stop offset="1" stop-color="#004AE9"/>
</linearGradient>
</defs>
</svg>
