<svg width="265" height="46" viewBox="0 0 265 46" fill="none" xmlns="http://www.w3.org/2000/svg">
<rect width="65" height="46" fill="url(#paint0_linear_45_14)"/>
<path fill-rule="evenodd" clip-rule="evenodd" d="M5 40.3497L20.6033 6L34.5813 33.6601H13.2923L10.3962 40.3497H5ZM20.6033 16.2974L15.3372 28.855H27.1047L20.6033 16.2974Z" fill="white"/>
<path d="M31.1356 17.7271L37.962 6.07516H43.6182L36.9868 17.7271L42.0085 29.0752L53.3053 6.07516H59L42.0085 40.5L31.1356 17.7271Z" fill="white"/>
<rect x="64" width="201" height="46" fill="white"/>
<path d="M82.8355 14.2754L76.2262 35H70.109L79.5836 9.40625H83.4508L82.8355 14.2754ZM88.3199 35L81.693 14.2754L81.0074 9.40625H84.9273L94.4371 35H88.3199ZM88.0387 25.4727V29.9023H74.6969V25.4727H88.0387ZM104.464 9.40625V35H98.7508V9.40625H104.464ZM120.73 29.709C120.73 29.3574 120.619 29.0469 120.396 28.7773C120.186 28.5078 119.799 28.2617 119.236 28.0391C118.686 27.8164 117.906 27.5938 116.898 27.3711C115.949 27.1719 115.064 26.9141 114.244 26.5977C113.424 26.2695 112.709 25.877 112.1 25.4199C111.49 24.9512 111.016 24.4004 110.676 23.7676C110.336 23.123 110.166 22.3906 110.166 21.5703C110.166 20.7734 110.336 20.0176 110.676 19.3027C111.027 18.5879 111.531 17.9551 112.188 17.4043C112.855 16.8535 113.664 16.4199 114.613 16.1035C115.574 15.7871 116.664 15.6289 117.883 15.6289C119.559 15.6289 121.006 15.8926 122.225 16.4199C123.443 16.9355 124.381 17.6621 125.037 18.5996C125.693 19.5254 126.021 20.5859 126.021 21.7812H120.537C120.537 21.2891 120.443 20.8613 120.256 20.498C120.068 20.1348 119.781 19.8535 119.395 19.6543C119.008 19.4434 118.498 19.3379 117.865 19.3379C117.373 19.3379 116.939 19.4258 116.564 19.6016C116.201 19.7656 115.914 19.9941 115.703 20.2871C115.504 20.5801 115.404 20.9199 115.404 21.3066C115.404 21.5762 115.463 21.8223 115.58 22.0449C115.709 22.2559 115.902 22.4551 116.16 22.6426C116.43 22.8184 116.775 22.9766 117.197 23.1172C117.631 23.2578 118.158 23.3926 118.779 23.5215C120.104 23.7676 121.311 24.1133 122.4 24.5586C123.502 25.0039 124.381 25.6191 125.037 26.4043C125.705 27.1895 126.039 28.2266 126.039 29.5156C126.039 30.3594 125.846 31.1328 125.459 31.8359C125.084 32.5391 124.539 33.1543 123.824 33.6816C123.109 34.209 122.254 34.6191 121.258 34.9121C120.262 35.2051 119.137 35.3516 117.883 35.3516C116.09 35.3516 114.572 35.0293 113.33 34.3848C112.088 33.7402 111.15 32.9316 110.518 31.959C109.896 30.9746 109.586 29.9668 109.586 28.9355H114.736C114.76 29.5684 114.918 30.084 115.211 30.4824C115.516 30.8809 115.908 31.1738 116.389 31.3613C116.869 31.5371 117.408 31.625 118.006 31.625C118.604 31.625 119.102 31.543 119.5 31.3789C119.898 31.2148 120.203 30.9922 120.414 30.7109C120.625 30.418 120.73 30.084 120.73 29.709ZM140.97 30.4648V22.3086C140.97 21.7344 140.882 21.2422 140.706 20.832C140.53 20.4219 140.255 20.0996 139.88 19.8652C139.505 19.6309 139.019 19.5137 138.421 19.5137C137.917 19.5137 137.478 19.6016 137.103 19.7773C136.739 19.9531 136.458 20.2051 136.259 20.5332C136.071 20.8613 135.978 21.2656 135.978 21.7461H130.493C130.493 20.8906 130.687 20.0938 131.073 19.3555C131.46 18.6172 132.011 17.9668 132.726 17.4043C133.452 16.8418 134.32 16.4082 135.327 16.1035C136.335 15.7871 137.466 15.6289 138.72 15.6289C140.208 15.6289 141.532 15.8809 142.693 16.3848C143.864 16.877 144.79 17.6211 145.47 18.6172C146.15 19.6016 146.489 20.8438 146.489 22.3438V30.3066C146.489 31.4551 146.554 32.3574 146.683 33.0137C146.823 33.6582 147.023 34.2207 147.28 34.7012V35H141.743C141.486 34.4492 141.292 33.7695 141.163 32.9609C141.034 32.1406 140.97 31.3086 140.97 30.4648ZM141.655 23.3984L141.691 26.4219H138.966C138.357 26.4219 137.829 26.498 137.384 26.6504C136.95 26.8027 136.599 27.0137 136.329 27.2832C136.06 27.541 135.861 27.8457 135.732 28.1973C135.614 28.5371 135.556 28.9121 135.556 29.3223C135.556 29.709 135.65 30.0605 135.837 30.377C136.025 30.6816 136.282 30.9219 136.611 31.0977C136.939 31.2734 137.32 31.3613 137.753 31.3613C138.468 31.3613 139.077 31.2207 139.581 30.9395C140.097 30.6582 140.495 30.3184 140.777 29.9199C141.058 29.5098 141.198 29.1289 141.198 28.7773L142.517 31.0625C142.306 31.5312 142.048 32.0176 141.743 32.5215C141.439 33.0137 141.052 33.4766 140.583 33.9102C140.114 34.332 139.546 34.6777 138.878 34.9473C138.222 35.2168 137.431 35.3516 136.505 35.3516C135.31 35.3516 134.226 35.1113 133.253 34.6309C132.28 34.1387 131.501 33.4648 130.915 32.6094C130.341 31.7539 130.054 30.7695 130.054 29.6562C130.054 28.6602 130.236 27.7754 130.599 27.002C130.962 26.2285 131.507 25.5723 132.234 25.0332C132.972 24.4941 133.898 24.0898 135.011 23.8203C136.124 23.5391 137.425 23.3984 138.913 23.3984H141.655ZM157.412 7.98242V35H151.911V7.98242H157.412ZM169.489 15.9805L161.209 25.543L156.832 29.9375L154.635 26.2285L158.186 21.6406L162.879 15.9805H169.489ZM163.688 35L158.327 26.2637L162.264 23.1875L169.981 35H163.688ZM182.908 29.3223L188.603 9.40625H194.984L186.213 35H182.046L182.908 29.3223ZM177.722 9.40625L183.4 29.3223L184.296 35H180.078L171.359 9.40625H177.722ZM206.821 35.3516C205.309 35.3516 203.956 35.1113 202.761 34.6309C201.565 34.1504 200.552 33.4883 199.72 32.6445C198.899 31.7891 198.272 30.8047 197.839 29.6914C197.405 28.5781 197.188 27.3887 197.188 26.123V25.4551C197.188 24.0371 197.388 22.7305 197.786 21.5352C198.184 20.3398 198.764 19.3027 199.526 18.4238C200.3 17.5332 201.249 16.8477 202.374 16.3672C203.499 15.875 204.782 15.6289 206.223 15.6289C207.571 15.6289 208.772 15.8516 209.827 16.2969C210.882 16.7305 211.772 17.3574 212.499 18.1777C213.225 18.9863 213.776 19.9648 214.151 21.1133C214.538 22.25 214.731 23.5273 214.731 24.9453V27.1953H199.403V23.6621H209.352V23.2402C209.352 22.5723 209.229 21.9863 208.983 21.4824C208.749 20.9785 208.397 20.5918 207.929 20.3223C207.471 20.041 206.891 19.9004 206.188 19.9004C205.52 19.9004 204.964 20.041 204.518 20.3223C204.073 20.6035 203.716 21.002 203.446 21.5176C203.188 22.0215 203.001 22.6133 202.884 23.293C202.766 23.9609 202.708 24.6816 202.708 25.4551V26.123C202.708 26.8613 202.807 27.5352 203.007 28.1445C203.206 28.7539 203.499 29.2754 203.886 29.709C204.272 30.1426 204.741 30.4824 205.292 30.7285C205.843 30.9746 206.47 31.0977 207.173 31.0977C208.04 31.0977 208.866 30.9336 209.651 30.6055C210.436 30.2656 211.116 29.7383 211.69 29.0234L214.257 31.959C213.87 32.5215 213.325 33.0664 212.622 33.5938C211.93 34.1094 211.098 34.5312 210.126 34.8594C209.153 35.1875 208.052 35.3516 206.821 35.3516ZM224.986 8V35H219.484V8H224.986ZM236.525 15.9805V35H231.023V15.9805H236.525ZM230.689 11.0586C230.689 10.2617 230.97 9.61133 231.532 9.10742C232.095 8.5918 232.833 8.33398 233.747 8.33398C234.661 8.33398 235.4 8.5918 235.962 9.10742C236.536 9.61133 236.823 10.2617 236.823 11.0586C236.823 11.8438 236.536 12.4941 235.962 13.0098C235.4 13.5137 234.661 13.7656 233.747 13.7656C232.833 13.7656 232.095 13.5137 231.532 13.0098C230.97 12.4941 230.689 11.8438 230.689 11.0586ZM257.661 30.7285V35H243.071V30.7285H257.661ZM257.432 19.0391L245.426 35H241.7V31.8359L253.67 15.9805H257.432V19.0391ZM255.551 15.9805V20.252H242.016V15.9805H255.551Z" fill="url(#paint1_linear_45_14)"/>
<defs>
<linearGradient id="paint0_linear_45_14" x1="32.5" y1="0" x2="32.5" y2="46" gradientUnits="userSpaceOnUse">
<stop offset="0.03" stop-color="#00D4FE"/>
<stop offset="1" stop-color="#004AE9"/>
</linearGradient>
<linearGradient id="paint1_linear_45_14" x1="164.5" y1="2" x2="164.5" y2="44" gradientUnits="userSpaceOnUse">
<stop offset="0.03" stop-color="#00D4FE"/>
<stop offset="1" stop-color="#004AE9"/>
</linearGradient>
</defs>
</svg>
